<?xml version="1.0" encoding="UTF-8"?>
<svg width="179px" height="60px" viewBox="0 0 179 60" version="1.1" xmlns="http://www.w3.org/2000/svg" xmlns:xlink="http://www.w3.org/1999/xlink">
    <title>Frame</title>
    <g id="Frame" stroke="none" fill="none" fill-rule="evenodd" stroke-width="1">
        <g id="ff@15" transform="translate(0.8203, -9)" fill="#000000">
            <polygon id="Path" fill-rule="nonzero" points="30.9375 20.7109375 15.703125 19.65625 15.703125 40.671875 30.9375 40.671875 30.9375 50.359375 15.703125 49.3046875 15.703125 67 4.21875 67 4.21875 50.359375 0 40.671875 4.21875 40.671875 4.21875 11.0234375 30.9375 11.0234375"></polygon>
            <polygon id="Path" fill-rule="nonzero" points="60.859375 20.7109375 45.625 19.65625 45.625 40.671875 60.859375 40.671875 60.859375 50.359375 45.625 49.3046875 45.625 67 34.140625 67 34.140625 50.359375 29.921875 40.671875 34.140625 40.671875 34.140625 11.0234375 60.859375 11.0234375"></polygon>
            <path d="M92.8515625,9.1484375 C98.3203125,9.1484375 103.300781,10.4895833 107.792969,13.171875 C112.285156,15.8541667 115.865885,19.4414062 118.535156,23.9335938 C121.204427,28.4257812 122.539062,33.3932292 122.539062,38.8359375 C122.539062,41.9088542 122.19401,44.6041667 121.503906,46.921875 C120.813802,49.2395833 119.960938,51.21875 118.945312,52.859375 C117.929688,54.5 116.888021,55.8411458 115.820312,56.8828125 C113.867188,58.8880208 111.660156,60.4309896 109.199219,61.5117188 C106.738281,62.5924479 104.205729,63.1328125 101.601562,63.1328125 C97.6432292,63.1328125 94.2447917,61.8697917 91.40625,59.34375 C88.4635417,56.5833333 86.9791667,52.8984375 86.953125,48.2890625 L86.953125,42.6640625 L81.6015625,42.3125 L81.5625,42.3125 L81.5625,48.2890625 L75.234375,48.2890625 L75.234375,42.8984375 L72.8515625,37.546875 L75.234375,37.546875 L75.234375,34.4609375 C75.234375,32.5338542 75.8984375,30.8802083 77.2265625,29.5 C78.5546875,28.1197917 80.4296875,27.4296875 82.8515625,27.4296875 L109.765625,27.4296875 L109.765625,32.8203125 L104.6875,32.2734375 L104.6875,48.2890625 L98.3203125,48.2890625 L98.3203125,32.1953125 L93.3203125,32.7421875 L93.3203125,48.2109375 C93.3203125,50.2942708 93.7304688,51.9934896 94.5507812,53.3085938 C95.3710938,54.6236979 96.4192708,55.59375 97.6953125,56.21875 C98.9713542,56.84375 100.273438,57.15625 101.601562,57.15625 C103.346354,57.15625 105.052083,56.7135417 106.71875,55.828125 C108.385417,54.9427083 109.895833,53.8098958 111.25,52.4296875 C112.005208,51.6744792 112.753906,50.6848958 113.496094,49.4609375 C114.238281,48.2369792 114.863281,46.7526042 115.371094,45.0078125 C115.878906,43.2630208 116.132812,41.2057292 116.132812,38.8359375 C116.132812,34.5651042 115.084635,30.6328125 112.988281,27.0390625 C110.891927,23.4453125 108.079427,20.5611979 104.550781,18.3867188 C101.022135,16.2122396 97.1223958,15.125 92.8515625,15.125 C88.5807292,15.125 84.6875,16.2122396 81.171875,18.3867188 C77.65625,20.5611979 74.8502604,23.4453125 72.7539062,27.0390625 C70.6575521,30.6328125 69.609375,34.5651042 69.609375,38.8359375 C69.609375,43.1328125 70.6575521,47.078125 72.7539062,50.671875 C74.8502604,54.265625 77.65625,57.1497396 81.171875,59.3242188 C84.6875,61.4986979 88.5807292,62.5859375 92.8515625,62.5859375 L92.8515625,68.5234375 C87.4088542,68.5234375 82.4414062,67.1888021 77.9492188,64.5195312 C73.4570312,61.8502604 69.8697917,58.2695312 67.1875,53.7773438 C64.5052083,49.2851562 63.1640625,44.3046875 63.1640625,38.8359375 C63.1640625,33.3932292 64.5052083,28.4257812 67.1875,23.9335938 C69.8697917,19.4414062 73.4570312,15.8541667 77.9492188,13.171875 C82.4414062,10.4895833 87.4088542,9.1484375 92.8515625,9.1484375 Z M81.5625,37.546875 L86.953125,37.546875 L86.953125,32.6640625 L86.9140625,32.6640625 C86.3151042,32.6380208 85.7682292,32.625 85.2734375,32.625 C83.9192708,32.625 82.9947917,32.7552083 82.5,33.015625 C81.875,33.3541667 81.5625,34.34375 81.5625,35.984375 L81.5625,37.546875 Z" id="Shape" fill-rule="nonzero"></path>
            <polygon id="Path" fill-rule="nonzero" points="127.851562 11.0234375 139.335938 11.0234375 140.234375 67 128.789062 67 129.6875 18.6796875 123.632812 20.7109375 127.851562 11.0625"></polygon>
            <path d="M177.578125,45.90625 L177.578125,55.984375 C177.447917,58.2239583 176.822917,60.2421875 175.703125,62.0390625 C174.583333,63.8359375 173.020833,65.2617188 171.015625,66.3164062 C169.010417,67.3710938 166.614583,67.8984375 163.828125,67.8984375 L160.078125,67.8984375 C157.1875,67.8984375 154.713542,67.3255208 152.65625,66.1796875 C150.598958,65.0338542 149.029948,63.5104167 147.949219,61.609375 C146.86849,59.7083333 146.328125,57.5729167 146.328125,55.203125 L146.328125,51.21875 L158.007812,51.21875 L158.046875,55.203125 C158.229167,56.296875 158.613281,57.0716146 159.199219,57.5273438 C159.785156,57.9830729 160.703125,58.2630208 161.953125,58.3671875 C163.802083,58.2630208 164.973958,57.6640625 165.46875,56.5703125 C165.885417,55.5807292 166.09375,53.8619792 166.09375,51.4140625 L166.09375,49.4609375 C166.09375,47.0651042 165.846354,45.359375 165.351562,44.34375 C164.856771,43.328125 163.606771,42.7942708 161.601562,42.7421875 L161.5625,42.703125 L159.257812,42.703125 L147.578125,43.171875 L147.578125,11.0234375 L176.523438,11.0234375 L175.15625,30.5546875 L166.015625,29.8515625 L166.132812,20.203125 L159.257812,19.6953125 L159.257812,33.2109375 L163.828125,33.2109375 C166.71875,33.2109375 169.192708,33.7838542 171.25,34.9296875 C173.307292,36.0755208 174.876302,37.6054688 175.957031,39.5195312 C177.03776,41.4335938 177.578125,43.5625 177.578125,45.90625 Z" id="Path" fill-rule="nonzero"></path>
        </g>
    </g>
</svg>